<svg width="21" height="25" viewBox="0 0 21 25" fill="none" xmlns="http://www.w3.org/2000/svg">
<rect y="4" width="21" height="21" rx="3" fill="#444444"/>
<rect x="2" y="10" width="17" height="13" rx="2" fill="#D9BB6E"/>
<rect x="4" y="12" width="3" height="3" rx="1" fill="#444444"/>
<rect x="4" y="17" width="3" height="3" rx="1" fill="#444444"/>
<path d="M9 13C9 12.4477 9.44772 12 10 12H11C11.5523 12 12 12.4477 12 13V14C12 14.5523 11.5523 15 11 15H10C9.44772 15 9 14.5523 9 14V13Z" fill="#444444"/>
<path d="M9 18C9 17.4477 9.44772 17 10 17H11C11.5523 17 12 17.4477 12 18V19C12 19.5523 11.5523 20 11 20H10C9.44772 20 9 19.5523 9 19V18Z" fill="#444444"/>
<path d="M14 18C14 17.4477 14.4477 17 15 17H16C16.5523 17 17 17.4477 17 18V19C17 19.5523 16.5523 20 16 20H15C14.4477 20 14 19.5523 14 19V18Z" fill="#444444"/>
<rect x="14" y="12" width="3" height="3" rx="1" fill="#444444"/>
<rect x="4" width="3" height="5" rx="1" fill="#444444"/>
<rect x="14" width="3" height="5" rx="1" fill="#444444"/>
</svg>
