<svg width="22" height="19" viewBox="0 0 22 19" fill="none" xmlns="http://www.w3.org/2000/svg">
<path d="M17.875 18H14.2656C13.982 18 13.75 17.7469 13.75 17.4375V15.5625C13.75 15.2531 13.982 15 14.2656 15H17.875C18.6355 15 19.25 14.3297 19.25 13.5V4.5C19.25 3.67031 18.6355 3 17.875 3H14.2656C13.982 3 13.75 2.74688 13.75 2.4375V0.5625C13.75 0.253125 13.982 0 14.2656 0H17.875C20.1523 0 22 2.01562 22 4.5V13.5C22 15.9844 20.1523 18 17.875 18ZM15.8555 8.57812L8.63672 0.703125C7.99219 0 6.875 0.492188 6.875 1.5V6H1.03125C0.459766 6 0 6.50156 0 7.125V11.625C0 12.2484 0.459766 12.75 1.03125 12.75H6.875V17.25C6.875 18.2578 7.99219 18.75 8.63672 18.0469L15.8555 10.1719C16.2551 9.73125 16.2551 9.01875 15.8555 8.57812Z" fill="#444444"/>
</svg>
