<svg width="30" height="35" viewBox="0 0 30 35" fill="none" xmlns="http://www.w3.org/2000/svg">
<g filter="url(#filter0_d)">
<rect x="3.5" y="13.5" width="21" height="16" rx="4.5" stroke="#D9BB6E" stroke-width="2"/>
<path fill-rule="evenodd" clip-rule="evenodd" d="M21.5028 11.1236C21.8243 10.3904 22 9.59715 22 8.76923C22 5.03069 18.4183 2 14 2C9.58172 2 6 5.03069 6 8.76923C6 9.59715 6.17566 10.3904 6.49716 11.1236C6.91339 11.215 7.34581 11.2631 7.78948 11.2631H10.2781C9.43633 10.5251 9 9.58404 9 8.76923C9 7.13778 10.7493 5 14 5C17.2507 5 19 7.13778 19 8.76923C19 9.58404 18.5637 10.5251 17.7219 11.2631H20.2105C20.6542 11.2631 21.0866 11.215 21.5028 11.1236Z" fill="#D9BB6E"/>
</g>
<path d="M17 20.619C17 21.9737 15.7534 23.2381 14 23.2381C12.2466 23.2381 11 21.9737 11 20.619C11 19.2644 12.2466 18 14 18C15.7534 18 17 19.2644 17 20.619Z" stroke="#D9BB6E" stroke-width="2"/>
<path d="M14 22.4287V26.5001" stroke="#D9BB6E" stroke-width="2" stroke-linejoin="round"/>
<defs>
</svg>
