<svg width="24" height="17" viewBox="0 0 24 17" fill="none" xmlns="http://www.w3.org/2000/svg">
<path d="M0.943961 1H5.19996V1.896C5.98929 1.448 6.67196 1.128 7.24796 0.935999C7.84529 0.722666 8.46396 0.615999 9.10396 0.615999C9.85063 0.615999 10.5653 0.743999 11.248 1C11.952 1.23467 12.528 1.608 12.976 2.12C13.9786 1.608 14.9173 1.23467 15.792 1C16.688 0.743999 17.5946 0.615999 18.512 0.615999C20.496 0.615999 21.904 1.224 22.736 2.44C23.568 3.656 23.984 5.61867 23.984 8.328V17H19.696V8.456C19.696 7.02667 19.536 6.00267 19.216 5.384C18.896 4.76533 18.2986 4.456 17.424 4.456C16.8053 4.456 15.984 4.60533 14.96 4.904L14.48 5.064C14.5653 6.49333 14.608 7.70933 14.608 8.712V17H10.32V8.776C10.32 7.624 10.256 6.74933 10.128 6.152C10.0213 5.55467 9.79729 5.128 9.45596 4.872C9.13596 4.59467 8.64529 4.456 7.98396 4.456C7.30129 4.456 6.51196 4.60533 5.61596 4.904L5.23196 5.032V17H0.943961V1Z" fill="#444444"/>
</svg>
