<svg width="53" height="55" viewBox="0 0 53 55" fill="none" xmlns="http://www.w3.org/2000/svg">
<path d="M26.5 30.9375C34.7295 30.9375 41.4062 24.0088 41.4062 15.4688C41.4062 6.92871 34.7295 0 26.5 0C18.2705 0 11.5938 6.92871 11.5938 15.4688C11.5938 24.0088 18.2705 30.9375 26.5 30.9375ZM39.75 34.375H34.0463C31.7482 35.4707 29.1914 36.0938 26.5 36.0938C23.8086 36.0938 21.2621 35.4707 18.9537 34.375H13.25C5.93145 34.375 0 40.5303 0 48.125V49.8438C0 52.6904 2.22559 55 4.96875 55H48.0312C50.7744 55 53 52.6904 53 49.8438V48.125C53 40.5303 47.0686 34.375 39.75 34.375Z" fill="#444444"/>
</svg>
