<svg width="21" height="20" viewBox="0 0 21 20" fill="none" xmlns="http://www.w3.org/2000/svg">
<path d="M20.4166 8.75H19.3411C19.0202 7.96875 18.5535 7.27734 17.9775 6.69922L18.6666 3.75H17.4999C16.4279 3.75 15.48 4.27734 14.8383 5.08984C14.5612 5.04688 14.2878 5 13.9997 5H9.33288C6.51089 5 4.15924 7.14844 3.61599 10H2.04092C1.50132 10 1.07474 9.47266 1.18412 8.875C1.26433 8.42969 1.65445 8.125 2.07738 8.125H2.11384C2.23416 8.125 2.3326 8.01953 2.3326 7.89062V7.10938C2.3326 6.98047 2.23416 6.875 2.11384 6.875C1.07474 6.875 0.148663 7.67188 0.0174079 8.77344C-0.143015 10.1094 0.826815 11.25 2.04092 11.25H3.49931C3.49931 13.2891 4.42539 15.082 5.83274 16.2227V19.375C5.83274 19.7188 6.09525 20 6.4161 20H8.74952C9.07037 20 9.33288 19.7188 9.33288 19.375V17.5H13.9997V19.375C13.9997 19.7188 14.2622 20 14.5831 20H16.9165C17.2374 20 17.4999 19.7188 17.4999 19.375V16.2227C17.9301 15.875 18.3129 15.4648 18.6411 15H20.4166C20.7375 15 21 14.7188 21 14.375V9.375C21 9.03125 20.7375 8.75 20.4166 8.75ZM15.7498 11.25C15.4289 11.25 15.1664 10.9688 15.1664 10.625C15.1664 10.2812 15.4289 10 15.7498 10C16.0706 10 16.3331 10.2812 16.3331 10.625C16.3331 10.9688 16.0706 11.25 15.7498 11.25ZM9.33288 3.75H13.9997C14.1966 3.75 14.3898 3.76562 14.5794 3.78125C14.5794 3.76953 14.5831 3.76172 14.5831 3.75C14.5831 1.67969 13.0153 0 11.0829 0C9.15058 0 7.58281 1.67969 7.58281 3.75C7.58281 3.83203 7.60104 3.91016 7.60468 3.99219C8.15887 3.83984 8.73494 3.75 9.33288 3.75Z" fill="#444444"/>
</svg>
