<svg width="20" height="20" viewBox="0 0 20 20" fill="none" xmlns="http://www.w3.org/2000/svg">
<path d="M10.0268 0C5.49038 0 2.55215 1.27746 0.245337 3.5557C-0.173127 3.96898 -0.0441156 4.53563 0.53962 4.83984L2.9913 6.11754C3.58083 6.42477 4.41964 6.35293 4.88118 5.95551C6.3048 4.72969 7.36082 4.02391 9.58454 4.02391C11.333 4.02391 13.4956 4.7973 13.4956 5.96262C13.4956 6.84355 12.4375 7.29598 10.7112 7.96121C8.69794 8.73699 6.03382 9.70246 6.03382 12.1177V12.5C6.03382 13.0178 6.64449 13.4375 7.39782 13.4375H11.5166C12.2699 13.4375 12.8806 13.0178 12.8806 12.5V12.2745C12.8806 10.6003 20 10.5305 20 6C20.0001 2.58813 14.8508 0 10.0268 0ZM9.45723 14.5882C7.28643 14.5882 5.52033 15.8021 5.52033 17.2941C5.52033 18.7861 7.28643 20 9.45723 20C11.628 20 13.3941 18.7861 13.3941 17.2941C13.3941 15.8021 11.628 14.5882 9.45723 14.5882Z" fill="#A6A6A6"/>
</svg>
