<svg width="53" height="40" viewBox="0 0 53 40" fill="none" xmlns="http://www.w3.org/2000/svg">
<path d="M47.7531 8.51634C34.8962 12.2147 18.325 21.378 25.0505 28.8771C30.2493 34.6739 42.1156 20.6486 47.7531 8.51634Z" fill="#444444"/>
<path fill-rule="evenodd" clip-rule="evenodd" d="M46 26.5C46 31.7395 43.9336 36.4963 40.5713 40H49.3083C51.6536 36.0462 53 31.4304 53 26.5C53 25.9966 52.986 25.4965 52.9583 25H45.9432C45.9808 25.4951 46 25.9953 46 26.5ZM34 8.49449C31.6912 7.53168 29.1577 7 26.5 7C15.7304 7 7 15.7304 7 26.5C7 31.7395 9.06641 36.4963 12.4287 40H3.69168C1.34644 36.0462 0 31.4304 0 26.5C0 11.8645 11.8645 0 26.5 0C29.1049 0 31.622 0.37584 34 1.07625V8.49449Z" fill="#444444"/>
</svg>
