<svg width="60" height="42" viewBox="0 0 60 42" fill="none" xmlns="http://www.w3.org/2000/svg">
<path d="M56.8035 0.5H38.7404C35.4692 0.5 33.8306 5.26043 36.144 8.04487L41.1012 14.0115L29.8756 27.5249L18.65 14.0134C16.7375 11.7114 13.6377 11.7114 11.7267 14.0134L1.21719 26.663C0.260938 27.814 0.260938 29.6795 1.21719 30.8305L4.67804 34.9961C5.63429 36.1471 7.18418 36.1471 8.14043 34.9961L15.1876 26.512L26.4132 40.0235C28.3257 42.3255 31.4255 42.3255 33.3364 40.0235L48.0244 22.3446L52.9816 28.3112C55.295 31.0957 59.25 29.1234 59.25 25.1861V3.44649C59.2515 1.81856 58.1561 0.5 56.8035 0.5Z" fill="#444444"/>
</svg>
